<svg width="32" height="24" viewBox="0 0 32 24" fill="none" xmlns="http://www.w3.org/2000/svg">
<rect x="0.727539" width="30.4545" height="24" rx="3" fill="#2E78BD"/>
<path d="M5.85566 10.1472L5.40148 9.03087L4.9499 10.1472H5.85566ZM15.8611 9.70269C15.7699 9.75852 15.6621 9.76038 15.5329 9.76038H14.7268V9.1384H15.5439C15.6595 9.1384 15.7802 9.14363 15.8585 9.1889C15.9446 9.2297 15.9979 9.31653 15.9979 9.43647C15.9979 9.55885 15.9472 9.65734 15.8611 9.70269ZM21.6119 10.1472L21.1527 9.03087L20.696 10.1472H21.6119ZM10.8921 11.3556H10.2119L10.2094 9.16238L9.24717 11.3556H8.66454L7.69984 9.16044V11.3556H6.3502L6.09523 10.731H4.7136L4.45603 11.3556H3.73533L4.92361 8.55526H5.9095L7.03808 11.2066V8.55526H8.12111L8.98952 10.4549L9.78726 8.55526H10.8921V11.3556H10.8921ZM13.6034 11.3556H11.3867V8.55526H13.6034V9.1384H12.0503V9.64315H13.5661V10.2172H12.0503V10.7764H13.6034V11.3556ZM16.7289 9.30943C16.7289 9.75591 16.4335 9.98658 16.2613 10.0558C16.4065 10.1116 16.5305 10.2101 16.5895 10.2917C16.6832 10.4309 16.6994 10.5554 16.6994 10.8054V11.3556H16.0301L16.0276 11.0024C16.0276 10.8339 16.0436 10.5916 15.9228 10.4569C15.8259 10.3584 15.6781 10.337 15.4392 10.337H14.7269V11.3556H14.0633V8.55526H15.5896C15.9287 8.55526 16.1786 8.5643 16.3931 8.68939C16.603 8.81448 16.7289 8.99709 16.7289 9.30943ZM17.7908 11.3556H17.1137V8.55526H17.7908V11.3556ZM25.6458 11.3556H24.7055L23.4477 9.25377V11.3556H22.0963L21.838 10.731H20.4596L20.2091 11.3556H19.4326C19.11 11.3556 18.7017 11.2836 18.4704 11.0458C18.2372 10.8081 18.1159 10.486 18.1159 9.97678C18.1159 9.56147 18.1884 9.18181 18.4736 8.8818C18.6881 8.65831 19.024 8.55526 19.4813 8.55526H20.1237V9.15529H19.4948C19.2526 9.15529 19.1159 9.19161 18.9842 9.32117C18.8711 9.43908 18.7934 9.66198 18.7934 9.95549C18.7934 10.2555 18.8526 10.4718 18.9759 10.6131C19.0781 10.7239 19.2637 10.7576 19.4384 10.7576H19.7364L20.6716 8.55535H21.6659L22.7894 11.204V8.55535H23.7997L24.9661 10.5056V8.55535H25.6458V11.3556ZM3.72762 11.9056H4.86139L5.11703 11.2836H5.68936L5.94433 11.9056H8.17511V11.4301L8.37424 11.9076H9.53229L9.73141 11.423V11.9056H15.2753L15.2727 10.8846H15.38C15.4551 10.8872 15.477 10.8942 15.477 11.0193V11.9056H18.3444V11.6679C18.5757 11.7929 18.9354 11.9056 19.4087 11.9056H20.615L20.8732 11.2836H21.4455L21.698 11.9056H24.0225V11.3148L24.3745 11.9056H26.2373V8H24.3938V8.46125L24.1356 8H22.244V8.46125L22.0069 8H19.4518C19.0241 8 18.6481 8.06022 18.3444 8.22805V8H16.5811V8.22805C16.3878 8.05507 16.1245 8 15.8317 8H9.38969L8.95745 9.00874L8.51357 8H6.48451V8.46125L6.26161 8H4.53114L3.72754 9.85692V11.9056H3.72762Z" fill="white"/>
<path d="M27.3362 13.9707H26.1268C26.0061 13.9707 25.9258 13.9752 25.8583 14.0213C25.7883 14.0666 25.7613 14.1339 25.7613 14.2228C25.7613 14.3285 25.8204 14.4004 25.9064 14.4314C25.9764 14.456 26.0516 14.4632 26.1621 14.4632L26.5218 14.4729C26.8847 14.4819 27.1269 14.5449 27.2746 14.6983C27.3015 14.7197 27.3177 14.7437 27.3362 14.7677V13.9707ZM27.3362 15.8173C27.175 16.0551 26.8609 16.1756 26.4357 16.1756H25.1542V15.575H26.4305C26.5571 15.575 26.6457 15.5582 26.699 15.5057C26.7453 15.4623 26.7775 15.3994 26.7775 15.323C26.7775 15.2414 26.7453 15.1766 26.6965 15.1377C26.6483 15.095 26.5782 15.0756 26.4627 15.0756C25.8396 15.0542 25.0623 15.095 25.0623 14.2086C25.0623 13.8023 25.318 13.3747 26.0143 13.3747H27.3361V12.8174H26.108C25.7374 12.8174 25.4682 12.9069 25.2776 13.0461V12.8174H23.4611C23.1706 12.8174 22.8297 12.89 22.6684 13.0461V12.8174H19.4247V13.0461C19.1665 12.8583 18.7309 12.8174 18.5299 12.8174H16.3903V13.0461C16.1861 12.8466 15.7319 12.8174 15.4551 12.8174H13.0605L12.5126 13.4156L11.9993 12.8174H8.42236V16.7258H11.932L12.4966 16.1181L13.0285 16.7258L15.1919 16.7277V15.8083H15.4046C15.6916 15.8128 16.0302 15.8011 16.3288 15.6709V16.7257H18.1132V15.707H18.1993C18.3092 15.707 18.32 15.7116 18.32 15.8223V16.7256H23.7406C24.0848 16.7256 24.4445 16.6367 24.6437 16.4755V16.7256H26.3631C26.7209 16.7256 27.0703 16.675 27.3362 16.5454V15.8173ZM24.6892 14.6983C24.8185 14.8332 24.8877 15.0035 24.8877 15.2918C24.8877 15.8944 24.5145 16.1756 23.8453 16.1756H22.5528V15.575H23.8401C23.9659 15.575 24.0552 15.5582 24.1111 15.5057C24.1568 15.4623 24.1895 15.3994 24.1895 15.323C24.1895 15.2414 24.1541 15.1766 24.1085 15.1377C24.0578 15.095 23.9878 15.0756 23.8722 15.0756C23.2517 15.0542 22.4745 15.095 22.4745 14.2086C22.4745 13.8023 22.7276 13.3747 23.4233 13.3747H24.7536V13.9708H23.5363C23.4156 13.9708 23.3372 13.9754 23.2704 14.0214C23.1978 14.0668 23.1708 14.1341 23.1708 14.223C23.1708 14.3286 23.2325 14.4005 23.316 14.4316C23.386 14.4562 23.4612 14.4634 23.5742 14.4634L23.9314 14.4731C24.2917 14.4819 24.5389 14.5448 24.6892 14.6983ZM18.7015 14.5254C18.6128 14.5785 18.503 14.5831 18.3739 14.5831H17.5678V13.954H18.3849C18.503 13.954 18.6212 13.9565 18.7015 14.0045C18.7875 14.0499 18.839 14.1367 18.839 14.2565C18.839 14.3764 18.7875 14.4729 18.7015 14.5254ZM19.1023 14.874C19.25 14.9289 19.3708 15.0275 19.4274 15.1091C19.5211 15.2459 19.5346 15.3735 19.5373 15.6204V16.1756H18.8711V15.8252C18.8711 15.6567 18.8872 15.4072 18.7638 15.2769C18.6669 15.1766 18.5191 15.1526 18.277 15.1526H17.5679V16.1756H16.9011V13.3746H18.4331C18.769 13.3746 19.0137 13.3896 19.2315 13.5068C19.4409 13.6344 19.5726 13.8093 19.5726 14.1288C19.5726 14.5759 19.277 14.804 19.1023 14.874ZM19.9406 13.3746H22.1553V13.9539H20.6014V14.4631H22.1173V15.0346H20.6014V15.5919L22.1553 15.5944V16.1756H19.9406V13.3746ZM15.4635 14.6673H14.606V13.954H15.4712C15.7108 13.954 15.8771 14.0524 15.8771 14.2974C15.8771 14.5396 15.7185 14.6673 15.4635 14.6673ZM13.9451 15.9209L12.9263 14.7799L13.9451 13.6752V15.9209ZM11.3141 15.5919H9.68257V15.0346H11.1394V14.4631H9.68257V13.9539H11.3462L12.072 14.7701L11.3141 15.5919ZM16.5895 14.2974C16.5895 15.0755 16.014 15.2361 15.434 15.2361H14.606V16.1756H13.3162L12.4992 15.2484L11.65 16.1756H9.02157V13.3746H11.6904L12.5069 14.2927L13.3509 13.3746H15.4712C15.9978 13.3746 16.5895 13.5217 16.5895 14.2974Z" fill="white"/>
</svg>
