<svg width="31" height="24" viewBox="0 0 31 24" fill="none" xmlns="http://www.w3.org/2000/svg">
<rect x="0.272949" width="30.4545" height="24" rx="3" fill="#231F20"/>
<path d="M4.07216 15.8716C3.95763 15.6859 3.80493 15.3891 3.71062 15.1694C3.16044 13.8828 3.13574 12.5509 3.59833 11.2733C4.10809 9.87121 5.08268 8.79979 6.34246 8.25162C7.92561 7.56528 9.67493 7.69892 11.193 8.60725C12.1563 9.16448 12.839 10.0252 13.3577 11.2439C13.4228 11.4002 13.4812 11.5655 13.5396 11.7083L4.07216 15.8716ZM7.23396 10.3197C6.10892 10.8067 5.52955 11.8713 5.65082 13.1172L10.4115 11.0491C9.59185 10.0796 8.52743 9.75795 7.23396 10.3197ZM11.0043 14.8183C11.0021 14.8183 11.0021 14.8206 11.0021 14.8206L10.9033 14.7526C10.6181 15.217 10.1757 15.5953 9.61655 15.8399C8.55213 16.3065 7.56631 16.1865 6.8567 15.559L6.79158 15.6587C6.79158 15.6587 6.79158 15.6564 6.78933 15.6564L5.5812 17.4799C5.88211 17.6905 6.20323 17.8672 6.54007 18.0099C7.87396 18.5694 9.23929 18.5422 10.5844 17.9533C11.5567 17.5274 12.3203 16.8796 12.8412 16.0574L11.0043 14.8183Z" fill="white"/>
<path d="M16.8473 5.56934V15.7037L18.4103 16.3424L17.5232 18.4309L15.7986 17.7061C15.4124 17.5362 15.1474 17.2779 14.9498 16.9857C14.7589 16.689 14.6174 16.279 14.6174 15.7308V5.56934H16.8473Z" fill="white"/>
<path d="M20.8939 13.1236C20.8939 12.2606 21.2734 11.4859 21.8708 10.9603L20.2674 9.15723C19.1805 10.1267 18.4956 11.5425 18.4956 13.1191C18.4934 14.6979 19.1783 16.1159 20.2629 17.0854L21.864 15.2823C21.2689 14.7546 20.8939 13.9844 20.8939 13.1236Z" fill="#00A4E0"/>
<path d="M23.7412 15.9985C23.4269 15.9985 23.1214 15.9441 22.8385 15.849L22.0728 18.1436C22.596 18.3203 23.1551 18.4177 23.739 18.4177C26.2765 18.42 28.3941 16.6033 28.8859 14.1908L26.5325 13.7061C26.2653 15.0176 25.1178 16.0007 23.7412 15.9985Z" fill="#EF4223"/>
<path d="M23.748 7.83008C23.1664 7.83008 22.6072 7.92522 22.084 8.09964L22.843 10.3965C23.1282 10.3014 23.4313 10.2493 23.7457 10.2493C25.1245 10.2516 26.2743 11.2392 26.5348 12.553L28.8882 12.0728C28.4054 9.65581 26.2878 7.83234 23.748 7.83008Z" fill="#FFF200"/>
</svg>
