<svg width="32" height="24" viewBox="0 0 107 107" fill="none" xmlns="http://www.w3.org/2000/svg">
<path fill-rule="evenodd" clip-rule="evenodd" d="M66.9273 82.6575C68.0889 83.8186 69.3542 84.8432 70.7019 85.7224L59.59 96.8343C59.59 96.8344 59.5901 96.8342 59.59 96.8343C56.2266 100.197 50.7733 100.197 47.4099 96.8346C47.4098 96.8345 47.41 96.8347 47.4099 96.8346L36.8295 86.2539C38.4616 85.2764 39.9835 84.0926 41.3598 82.7173L54.1732 69.9038L66.9273 82.6575ZM31.1687 80.593C29.2007 81.4579 27.0562 81.9125 24.8422 81.9125H21.6797L42.0055 102.239C48.3537 108.586 58.646 108.586 64.9941 102.239L85.3788 81.8541H83.4453C80.9147 81.8541 78.4749 81.2602 76.2859 80.1385C74.8434 79.3993 73.5098 78.4309 72.3307 77.2523L56.2816 61.2037C55.1553 60.0738 53.1911 60.0774 52.0648 61.2037L35.9573 77.3111C34.5542 78.7133 32.9323 79.8179 31.1687 80.593Z" fill="#1D3C85"/>
<path fill-rule="evenodd" clip-rule="evenodd" d="M41.3606 24.2836C39.9843 22.9077 38.4623 21.7235 36.83 20.7457L47.4103 10.1654C50.7738 6.80191 56.2268 6.80191 59.5903 10.1654L70.702 21.2771C69.3544 22.1562 68.0893 23.1806 66.9278 24.3415L54.1728 37.0977L41.3606 24.2836ZM76.286 26.8611C78.4752 25.7393 80.9151 25.1453 83.4458 25.1453H85.3788L64.9946 4.76108C58.6464 -1.58709 48.3542 -1.58709 42.006 4.76108L21.6807 25.0864H24.8427C27.0568 25.0864 29.2014 25.5412 31.1693 26.4064C32.9328 27.1816 34.5545 28.2864 35.9573 29.6888L52.0647 45.7988C53.2248 46.9588 55.119 46.9638 56.2821 45.7972L72.3307 29.7471C73.5099 28.5686 74.8435 27.6002 76.286 26.8611Z" fill="#1D3C85"/>
<path fill-rule="evenodd" clip-rule="evenodd" d="M75.6695 33.0855C77.7153 31.0383 80.5497 29.8641 83.4455 29.8641H89.0458C89.3558 29.8641 89.6492 29.7962 89.9205 29.6875L102.239 42.0059C108.587 48.3536 108.587 58.6458 102.239 64.9945L89.921 77.3119C89.6492 77.2032 89.3563 77.1357 89.0458 77.1357H83.4455C80.5497 77.1357 77.7153 75.9616 75.6695 73.9138L59.6204 57.8668C58.1662 56.4108 56.1704 55.6832 54.1741 55.6832C52.178 55.6833 50.1814 56.4109 48.7258 57.8653L32.6183 73.9727C30.572 76.02 27.7382 77.1941 24.8424 77.1941H17.9557C17.6623 77.1941 17.387 77.2636 17.1278 77.3612L4.76113 64.9945C-1.58704 58.6458 -1.58704 48.3536 4.76113 42.0059L17.1283 29.6387C17.3875 29.7363 17.6623 29.8058 17.9557 29.8058H24.8424C27.7382 29.8058 30.572 30.9799 32.6183 33.0272L48.7273 49.1361C50.229 50.6364 52.2008 51.3882 54.1741 51.3882C56.1459 51.3882 58.1192 50.6364 59.6204 49.1346L75.6695 33.0855ZM66.063 53.5006L81.0738 38.4898C81.6851 37.8782 82.5761 37.507 83.4455 37.507H86.9314L96.8346 47.4102C100.198 50.7729 100.198 56.2262 96.8344 59.5904L86.9314 69.4929H83.4455C82.5762 69.4929 81.6875 69.1238 81.0765 68.5122L81.0735 68.5092L66.063 53.5006ZM42.2825 53.4999L27.214 68.5684C26.6016 69.1811 25.7112 69.5513 24.8424 69.5513H20.1265L10.1656 59.5904C10.1656 59.5903 10.1657 59.5905 10.1656 59.5904C6.80187 56.2261 6.80234 50.773 10.1652 47.4104L20.127 37.4486H24.8424C25.7112 37.4486 26.6003 37.8174 27.2127 38.4301L42.2825 53.4999Z" fill="#1D3C85"/>
</svg>
