<svg width="18" height="18" viewBox="0 0 18 18" fill="none" xmlns="http://www.w3.org/2000/svg">
<path opacity="0.1" d="M5.90722 7.46094H7.88994C9.87265 6.96094 11.8554 7.96094 12.8467 7.96094C13.8381 7.96094 14.8294 9.96095 15.3251 11.461C15.7216 12.661 14.499 13.6276 13.8381 13.961L12.8467 16.961H11.8554L10.3683 15.961H8.88128L7.88994 16.461L7.39424 16.961C7.06379 16.961 6.40289 16.861 6.40289 16.461C6.40289 15.961 5.90722 15.461 4.91585 15.461C3.92448 15.461 1.44611 12.461 0.950434 11.961C0.454755 11.461 0.950362 11.0003 1.44604 11.0003C1.84258 11.0003 1.94179 11.1276 1.94179 10.961C2.27224 10.6276 2.93315 9.86095 2.93315 9.46095C2.93315 9.06095 3.59405 8.96094 3.92451 8.96094V7.46094L4.91586 6.96094L5.90722 7.46094Z" fill="#132177"/>
<path d="M4.52848 11.2674C4.13906 11.2674 3.82233 10.9479 3.82233 10.5551C3.82233 10.1623 4.13906 9.84277 4.52848 9.84277C4.91789 9.84277 5.23462 10.1623 5.23462 10.5551C5.23462 10.9479 4.91789 11.2674 4.52848 11.2674ZM4.52848 10.2968C4.38734 10.2968 4.27246 10.4127 4.27246 10.5551C4.27246 10.6974 4.38734 10.8133 4.52848 10.8133C4.66973 10.8133 4.78449 10.6974 4.78449 10.5551C4.78449 10.4127 4.66973 10.2968 4.52848 10.2968Z" fill="#132177"/>
<path d="M1.02231 10.4977L1.99478 10.3014C2.07953 10.2844 2.15068 10.2296 2.18046 10.1587C2.45745 9.4996 2.92868 8.89904 3.58184 8.37215V6.94659C3.58184 6.806 3.64315 6.67404 3.75017 6.58453C3.85696 6.49514 3.99657 6.45884 4.13325 6.48473C4.52102 6.55816 5.13269 6.75303 5.84481 7.26373C5.94609 7.33645 5.96988 7.47822 5.89791 7.58038C5.82582 7.68255 5.68539 7.70643 5.58399 7.63383C4.90446 7.14643 4.33124 6.9842 4.05014 6.93087C4.04792 6.93051 4.04288 6.92957 4.0376 6.93394C4.03197 6.93867 4.03197 6.94447 4.03197 6.94659V8.48247C4.03197 8.55294 3.99962 8.61928 3.94429 8.66232C3.30766 9.1574 2.85366 9.72048 2.59495 10.3359C2.50657 10.5463 2.31526 10.6999 2.08316 10.7467L1.11057 10.9429C0.991359 10.9669 0.904732 11.0734 0.904732 11.1962V11.5262C0.904732 12.1869 1.31993 12.9237 2.0739 13.6008C2.84534 14.2935 3.94453 14.9 5.16891 15.3087C5.55715 15.4383 5.87189 15.7293 6.03236 16.1071L6.29435 16.7237C6.33468 16.8188 6.42705 16.8802 6.52962 16.8802H7.89631C7.90486 16.8802 7.91178 16.8732 7.91178 16.8646V15.6514C7.91178 15.5259 8.01259 15.4243 8.13685 15.4243C8.26122 15.4243 8.36191 15.5259 8.36191 15.6514V15.8979C8.53376 15.9057 8.69775 15.9096 8.85858 15.9096C9.51772 15.9096 10.1694 15.842 10.7985 15.7091V15.4086C10.7985 15.2833 10.8992 15.1816 11.0235 15.1816C11.1478 15.1816 11.2486 15.2833 11.2486 15.4086V16.8646C11.2486 16.8732 11.2555 16.8802 11.2641 16.8802H12.6012C12.7115 16.8802 12.8092 16.8092 12.8441 16.7036L13.4139 14.9793C13.5003 14.7176 13.6564 14.49 13.8649 14.321C14.8348 13.535 15.369 12.5425 15.369 11.5263C15.369 9.10928 12.4484 7.14288 8.85846 7.14288C8.13298 7.14288 7.42027 7.22329 6.73991 7.38185C6.61894 7.41011 6.49797 7.33396 6.46995 7.21182C6.44205 7.08955 6.51754 6.96776 6.63863 6.9395C7.35205 6.77313 8.09887 6.68882 8.85846 6.68882C10.6004 6.68882 12.2462 7.12952 13.5266 7.93381C13.7024 7.48378 14.1392 7.17421 14.6318 7.17421C15.2864 7.1741 15.8191 7.7114 15.8191 8.37179C15.8191 8.49713 15.7183 8.59882 15.594 8.59882C15.4698 8.59882 15.369 8.49713 15.369 8.37179C15.369 7.96172 15.0383 7.62815 14.6319 7.62815C14.2913 7.62815 13.9944 7.86642 13.9156 8.19774C15.1447 9.09805 15.8191 10.2733 15.8191 11.5263C15.8191 12.6829 15.2252 13.8011 14.1468 14.6749C14.0058 14.7893 13.8999 14.9442 13.841 15.1228L13.2712 16.8472C13.1749 17.1385 12.9057 17.3343 12.6012 17.3343H11.2641C11.0073 17.3343 10.7985 17.1236 10.7985 16.8647V16.1728C10.1677 16.2996 9.51655 16.3637 8.85858 16.3637C8.69728 16.3637 8.53329 16.36 8.36191 16.3526V16.8647C8.36191 17.1236 8.15302 17.3343 7.89631 17.3343H6.52962C6.24676 17.3343 5.99204 17.1649 5.88056 16.9026L5.61869 16.286C5.50885 16.0276 5.2934 15.8285 5.02754 15.7398C3.72755 15.306 2.60281 14.6835 1.77463 13.9399C0.911062 13.1645 0.4546 12.3298 0.4546 11.5263V11.1962C0.4546 10.8578 0.693381 10.564 1.02231 10.4977Z" fill="#132177" stroke="#132177" stroke-width="0.485714"/>
<path d="M17.0081 0.0719488C17.1608 0.0352687 17.3076 0.151023 17.3076 0.30809V3.80477C17.3076 3.9389 17.1989 4.04763 17.0648 4.04763H2.50571C2.21797 4.04763 2.16921 3.63582 2.44899 3.56863L17.0081 0.0719488Z" fill="#F7DC16"/>
</svg>
