<svg width="32" height="24" viewBox="0 0 32 24" fill="none" xmlns="http://www.w3.org/2000/svg">
<rect x="0.818359" width="30.4545" height="24" rx="3" fill="#12288E"/>
<path fill-rule="evenodd" clip-rule="evenodd" d="M15.6423 10.7448C15.6555 9.01524 17.1591 7.80566 19.2996 7.80566L19.2995 7.80571C20.1365 7.80571 20.8112 8.00101 21.2388 8.18053L20.9444 10.1115L20.7514 10.0092C20.3502 9.82712 19.8406 9.65425 19.1321 9.66693C18.2837 9.66693 17.8928 10.0631 17.8923 10.4327C17.8853 10.8511 18.3518 11.1249 19.1061 11.5377C20.3557 12.1727 20.9337 12.9419 20.9247 13.9581C20.9072 15.8043 19.4293 17 17.1578 17C16.1863 16.9888 15.2517 16.7738 14.7456 16.5258L15.0484 14.5324L15.3294 14.6743C16.0382 15.0057 16.4993 15.1399 17.3643 15.1399C17.9847 15.1399 18.6524 14.868 18.6608 14.271C18.6636 13.8815 18.3814 13.6017 17.5365 13.1664C16.7175 12.7405 15.6287 12.0261 15.6423 10.7448ZM11.2261 16.8683L12.58 7.96102L12.5803 7.96092H14.7438L13.3892 16.8683H11.2261ZM7.29294 14.0403L9.41104 7.96966V7.96973H11.7021L8.29597 16.8587L6.0055 16.8598L4.07516 9.09348C3.41433 8.67968 2.66085 8.34715 1.81836 8.11814L1.83869 7.96486H5.3286L5.32859 7.96484C5.79862 7.98473 6.17836 8.15211 6.30872 8.7151L7.06635 12.8045C7.06661 12.8053 7.06687 12.806 7.06713 12.8068L7.29294 14.0403ZM23.9815 8.70955C24.2103 8.12726 24.5987 7.97024 25.1169 7.97024L25.117 7.97024H26.7887L28.5408 16.8711H26.5314C26.5314 16.8711 26.3348 15.8478 26.2679 15.5372C26.101 15.5372 25.403 15.5358 24.7465 15.5344C24.164 15.5333 23.6143 15.5321 23.4977 15.5321C23.4136 15.7726 23.0421 16.8712 23.0421 16.8712H20.7695L23.9815 8.70955ZM25.414 11.1395L25.2698 10.3716L25.2698 10.3716C25.2151 10.5373 25.1404 10.754 25.0808 10.927C25.0205 11.102 24.9756 11.2323 24.9823 11.2202C24.9823 11.2202 24.3 13.1988 24.1203 13.7099H25.9166C25.8298 13.2648 25.414 11.1395 25.414 11.1395Z" fill="white"/>
</svg>
